<?xml version="1.0" encoding="UTF-8" standalone="no"?>
<!-- Created with Inkscape (http://www.inkscape.org/) -->

<svg
   xmlns:dc="http://purl.org/dc/elements/1.1/"
   xmlns:cc="http://creativecommons.org/ns#"
   xmlns:rdf="http://www.w3.org/1999/02/22-rdf-syntax-ns#"
   xmlns:svg="http://www.w3.org/2000/svg"
   xmlns="http://www.w3.org/2000/svg"
   xmlns:sodipodi="http://sodipodi.sourceforge.net/DTD/sodipodi-0.dtd"
   xmlns:inkscape="http://www.inkscape.org/namespaces/inkscape"
   width="42mm"
   height="42mm"
   viewBox="0 0 148.81881 148.8188"
   id="svg4149"
   version="1.1"
   inkscape:version="0.91 r13725"
   sodipodi:docname="m-logo.svg"
   inkscape:export-filename="C:\Users\robert\Google Drive\Inner Loop Software\Html\images\me-logo.png"
   inkscape:export-xdpi="37.534302"
   inkscape:export-ydpi="37.534302">
  <defs
     id="defs4151" />
  <sodipodi:namedview
     id="base"
     pagecolor="#ffffff"
     bordercolor="#666666"
     borderopacity="1.0"
     inkscape:pageopacity="0.0"
     inkscape:pageshadow="2"
     inkscape:zoom="1.0006779"
     inkscape:cx="-202.25858"
     inkscape:cy="80.573312"
     inkscape:document-units="px"
     inkscape:current-layer="layer1"
     showgrid="false"
     inkscape:window-width="1920"
     inkscape:window-height="1003"
     inkscape:window-x="-9"
     inkscape:window-y="-9"
     inkscape:window-maximized="1" />
  <metadata
     id="metadata4154">
    <rdf:RDF>
      <cc:Work
         rdf:about="">
        <dc:format>image/svg+xml</dc:format>
        <dc:type
           rdf:resource="http://purl.org/dc/dcmitype/StillImage" />
        <dc:title></dc:title>
      </cc:Work>
    </rdf:RDF>
  </metadata>
  <g
     inkscape:label="Layer 1"
     inkscape:groupmode="layer"
     id="layer1"
     transform="translate(0,-903.5433)">
    <path
       sodipodi:nodetypes="cccccccccccc"
       inkscape:connector-curvature="0"
       id="path4204"
       d="m 55.911586,913.37795 -8.9386,51.42717 21.8967,68.36498 12.3926,0 29.003904,-69.08205 8.8769,69.08205 31.2012,0 -18.1055,-119.97073 -35.489698,0 -21.287606,63.98438 -13.81,-63.8058 z"
       style="font-style:normal;font-variant:normal;font-weight:bold;font-stretch:normal;font-size:180px;line-height:125%;font-family:Aharoni;-inkscape-font-specification:'Aharoni Bold';letter-spacing:0px;word-spacing:0px;display:inline;fill:#c6c6c6;fill-opacity:1;stroke:none;stroke-width:1px;stroke-linecap:butt;stroke-linejoin:miter;stroke-opacity:1" />
    <path
       sodipodi:nodetypes="sccccs"
       inkscape:connector-curvature="0"
       id="rect4141"
       d="m 26.041286,910.02806 c -17.6194098,0.0306 -25.91290901,2.91573 -25.91290901,2.91573 L 16.677486,1009.5534 c 7.2432,0 10.7146,0.021 17.829,0.021 l 16.9199,-96.77906 c 0,0 -8.2828,-2.79668 -25.3851,-2.76702 z"
       style="display:inline;fill:#f5b225;fill-opacity:1;stroke:none;stroke-width:3;stroke-linecap:round;stroke-linejoin:round;stroke-miterlimit:4;stroke-dasharray:none;stroke-opacity:1" />
    <path
       sodipodi:nodetypes="ssscssscs"
       id="path4198-3"
       style="font-style:normal;font-variant:normal;font-weight:bold;font-stretch:normal;font-size:180px;line-height:125%;font-family:Aharoni;-inkscape-font-specification:'Aharoni Bold';letter-spacing:0px;word-spacing:0px;display:inline;fill:#f5b225;fill-opacity:1;stroke:none;stroke-width:1px;stroke-linecap:butt;stroke-linejoin:miter;stroke-opacity:1"
       d="m 41.627686,1030.144 c 0,4.5704 -1.582,8.4375 -4.7461,11.6016 -3.1055,3.1055 -6.9434,4.6582 -11.5137,4.6582 -4.5117,0 -8.3496,-1.582 -11.51365,-4.7461 -3.10547,-3.164 -4.6581998,-7.0019 -4.6581998,-11.5137 0,-4.5117 1.5527298,-8.3203 4.6581998,-11.4257 3.16405,-3.1641 7.00195,-4.7461 11.51365,-4.7461 4.5117,0 8.3496,1.582 11.5137,4.7461 3.1641,3.1054 4.7461,6.914 4.7461,11.4257 z"
       inkscape:connector-curvature="0" />
    <path
       style="fill:#646060;fill-opacity:1"
       d="m 68.867355,1030.76 c -2.28737,-4.0173 -20.46936,-63.76966 -20.46936,-67.26941 0,-3.70909 5.100434,-35.46038 7.33048,-45.63381 0.94233,-4.29889 5.012921,-4.8319 6.15893,-0.80645 0.441959,1.55242 3.537427,15.70748 6.878816,31.45568 3.341389,15.74821 6.567116,28.08692 7.168281,27.41936 0.601166,-0.66756 5.598791,-14.82262 11.10583,-31.45568 l 10.01282,-30.24194 17.607908,0 c 10.14986,0 17.60791,0.65453 17.60791,1.54531 0,2.25655 15.98217,108.28214 16.96831,112.56764 0.82098,3.5677 0.57588,3.629 -14.51823,3.629 -8.44432,0 -15.35331,-0.3673 -15.35331,-0.8163 0,-1.9005 -8.22736,-64.65002 -8.66918,-66.1192 -0.56444,-1.87694 -2.90326,3.29116 -18.058026,39.9029 l -11.176023,26.9997 -5.953198,0.016 c -3.27426,0.01 -6.263141,-0.5279 -6.641958,-1.1932 z"
       id="path4137"
       inkscape:connector-curvature="0" />
    <path
       style="fill:#646060;fill-opacity:1"
       d="m 54.858978,989.24403 c -4.258481,-13.29655 -7.744947,-24.31635 -7.747702,-24.48843 -0.0028,-0.17208 1.986891,-11.79747 4.421438,-25.83419 l 4.426448,-25.52131 2.817615,-4.6e-4 2.817615,-4.5e-4 0.202843,0.91931 c 2.156171,9.77203 10.879308,50.35984 10.865342,50.55526 -0.04454,0.62324 -2.028213,-7.99798 -4.531146,-19.69275 -2.569967,-12.00797 -5.149225,-23.81355 -5.790887,-26.5056 -0.806502,-3.38362 -1.521345,-4.31313 -3.317019,-4.31313 -1.759516,0 -2.735566,1.11699 -3.424942,3.9195 -0.83797,3.40659 -3.622656,19.38442 -5.405297,31.01423 -2.066623,13.4825 -2.100838,14.10937 -0.998729,18.29863 2.130326,8.09765 8.548026,29.77054 12.564825,42.43206 0.529227,1.6682 0.935244,3.114 0.902259,3.213 -0.03298,0.099 -3.544182,-10.6991 -7.802663,-23.99567 z"
       id="path4138"
       inkscape:connector-curvature="0" />
    <path
       style="fill:#646060;fill-opacity:1"
       d="m 101.96839,914.1435 c 2.76887,-0.0271 7.29975,-0.0271 10.06862,0 2.76887,0.0271 0.50343,0.0493 -5.03431,0.0493 -5.53774,0 -7.803179,-0.0222 -5.03431,-0.0493 z"
       id="path4140"
       inkscape:connector-curvature="0" />
    <path
       style="fill:#646060;fill-opacity:1"
       d=""
       id="path4142"
       inkscape:connector-curvature="0" />
    <path
       style="fill:#646060;fill-opacity:1"
       d="m 66.589891,1025.8604 c -1.279932,-4.0204 -2.319587,-7.3886 -2.310344,-7.4849 0.0092,-0.096 0.787516,2.0707 1.729495,4.8155 2.419138,7.049 2.619923,7.5315 3.299189,7.9282 1.040888,0.6079 3.002252,0.8145 7.795035,0.821 2.736558,0 4.508991,0.072 4.508991,0.173 0,0.092 -0.09145,0.3675 -0.203213,0.6128 l -0.203214,0.446 -6.144395,-9e-4 -6.144396,-10e-4 -2.327148,-7.3097 z"
       id="path4144"
       inkscape:connector-curvature="0" />
    <path
       style="fill:#646060;fill-opacity:1"
       d="m 119.18208,1032.9531 c -0.0857,-0.2796 -8.69028,-67.55088 -8.68282,-67.88291 0.0186,-0.82977 0.25956,0.60277 1.04398,6.20716 1.72471,12.32264 5.39954,40.36355 7.06655,53.92165 l 0.75286,6.1231 0.6054,0.127 c 2.44479,0.5127 23.37597,0.7675 26.60301,0.3237 2.92929,-0.4028 3.20705,-0.7361 2.74941,-3.2991 -1.94077,-10.8694 -16.36517,-106.41775 -16.96223,-112.35907 -0.0694,-0.6902 -0.54459,-0.90452 -2.70804,-1.22128 -3.48491,-0.51024 -7.25655,-0.65204 -19.78603,-0.74391 l -12.810548,-0.0939 -6.825247,20.55328 c -6.430427,19.36437 -9.564351,28.58559 -12.129973,35.69106 -2.86739,7.94121 -0.407809,0.30373 8.73786,-27.13275 l 9.95201,-29.85546 17.692368,-0.0446 17.69236,-0.0446 0.10452,0.65748 c 0.0575,0.36162 4.08689,27.04451 8.95422,59.29533 4.86734,32.25092 8.8986,58.94372 8.95836,59.31742 l 0.10865,0.6794 -15.5248,0 c -12.26732,0 -15.53887,-0.046 -15.59187,-0.2189 z"
       id="path4146"
       inkscape:connector-curvature="0" />
  </g>
</svg>
