<?xml version="1.0" encoding="UTF-8" standalone="no"?>
<!-- Created with Inkscape (http://www.inkscape.org/) -->

<svg
   xmlns:dc="http://purl.org/dc/elements/1.1/"
   xmlns:cc="http://creativecommons.org/ns#"
   xmlns:rdf="http://www.w3.org/1999/02/22-rdf-syntax-ns#"
   xmlns:svg="http://www.w3.org/2000/svg"
   xmlns="http://www.w3.org/2000/svg"
   xmlns:sodipodi="http://sodipodi.sourceforge.net/DTD/sodipodi-0.dtd"
   xmlns:inkscape="http://www.inkscape.org/namespaces/inkscape"
   width="6.9329171mm"
   height="10.34447mm"
   viewBox="0 0 6.9329172 10.34447"
   version="1.1"
   id="svg8"
   sodipodi:docname="Pooli logo.svg"
   inkscape:export-filename="C:\Users\rober\Google Drive\Inner Loop Software\Pooli\pooli_logo.png"
   inkscape:export-xdpi="439.47186"
   inkscape:export-ydpi="439.47186"
   inkscape:version="0.92.3 (2405546, 2018-03-11)">
  <defs
     id="defs2" />
  <sodipodi:namedview
     id="base"
     pagecolor="#888888"
     bordercolor="#666666"
     borderopacity="1.0"
     inkscape:pageopacity="0"
     inkscape:pageshadow="2"
     inkscape:zoom="8"
     inkscape:cx="49.56853"
     inkscape:cy="16.519406"
     inkscape:document-units="mm"
     inkscape:current-layer="layer3"
     showgrid="false"
     inkscape:window-width="1920"
     inkscape:window-height="1001"
     inkscape:window-x="-9"
     inkscape:window-y="87"
     inkscape:window-maximized="1"
     fit-margin-top="0"
     fit-margin-left="0"
     fit-margin-right="0"
     fit-margin-bottom="0" />
  <metadata
     id="metadata5">
    <rdf:RDF>
      <cc:Work
         rdf:about="">
        <dc:format>image/svg+xml</dc:format>
        <dc:type
           rdf:resource="http://purl.org/dc/dcmitype/StillImage" />
        <dc:title></dc:title>
      </cc:Work>
    </rdf:RDF>
  </metadata>
  <g
     inkscape:label="Background"
     inkscape:groupmode="layer"
     id="layer1"
     transform="translate(-37.466892,-144.69151)" />
  <g
     inkscape:groupmode="layer"
     id="layer3"
     inkscape:label="P"
     transform="translate(-37.466892,-144.69151)">
    <g
       aria-label="P"
       style="font-style:normal;font-variant:normal;font-weight:normal;font-stretch:normal;font-size:12.69999981px;line-height:1.25;font-family:'Arial Rounded MT Bold';-inkscape-font-specification:'Arial Rounded MT Bold, Normal';font-variant-ligatures:normal;font-variant-caps:normal;font-variant-numeric:normal;font-feature-settings:normal;text-align:start;letter-spacing:0px;word-spacing:0px;writing-mode:lr-tb;text-anchor:start;fill:#000000;fill-opacity:1;stroke:none;stroke-width:0.26458332"
       id="text3823"
       inkscape:export-xdpi="21.959999"
       inkscape:export-ydpi="21.959999">
      <path
         d="M 40.995359,151.34008 H 39.30864 v 2.57349 c 0,0.36793 -0.08682,0.64699 -0.260449,0.83716 -0.173633,0.19017 -0.392741,0.28525 -0.657324,0.28525 -0.276986,0 -0.500228,-0.093 -0.669727,-0.27905 -0.169499,-0.19017 -0.254248,-0.46716 -0.254248,-0.83096 v -7.00732 c 0,-0.40515 0.09302,-0.69454 0.279053,-0.86817 0.140015,-0.13068 0.342619,-0.20809 0.606213,-0.24451 0.06924,-0.01 -0.465211,0.33797 0.0095,-0.007 0.595172,-0.43194 0.556146,-0.51082 0.260113,-1.13261 0.547857,0.34124 0.693201,0.56371 1.065757,1.09955 l 0.06595,0.002 c 0.785486,-0.44895 0.310763,-0.70558 0.239807,-1.09726 0.166816,0.171 0.428362,0.15012 1.049348,1.05945 0.03941,0.0577 0.109121,0.0639 0.168454,0.0701 0.0558,5.3e-4 -0.10957,0.0231 -0.05739,0.004 0.840003,-0.30811 0.319844,-0.94743 0.295122,-1.14863 0,0 0.608306,0.30196 1.170326,1.14579 0.912487,1.37003 -0.01169,0.003 0.05605,0.0478 0.529315,0.35113 1.256168,0.87515 1.513794,1.49673 0.14056,0.34727 0.21084,0.73794 0.21084,1.17202 0,0.92604 -0.285254,1.62884 -0.855761,2.1084 -0.570508,0.47542 -1.420069,0.71313 -2.548682,0.71313 z m -0.446484,-4.16719 H 39.30864 v 2.77813 h 1.240235 c 0.434082,0 0.795817,-0.0455 1.085205,-0.13643 0.293522,-0.091 0.516764,-0.23977 0.669726,-0.44648 0.152963,-0.20671 0.229444,-0.47749 0.229444,-0.81235 0,-0.40101 -0.117822,-0.72761 -0.353467,-0.97979 -0.264583,-0.26872 -0.808219,-0.40308 -1.630908,-0.40308 z"
         style="font-style:normal;font-variant:normal;font-weight:normal;font-stretch:normal;font-size:12.69999981px;font-family:'Arial Rounded MT Bold';-inkscape-font-specification:'Arial Rounded MT Bold, Normal';font-variant-ligatures:normal;font-variant-caps:normal;font-variant-numeric:normal;font-feature-settings:normal;text-align:start;writing-mode:lr-tb;text-anchor:start;fill:#f9f9f9;stroke-width:0.26458332"
         id="path3825"
         inkscape:connector-curvature="0"
         sodipodi:nodetypes="scscscsssssccccscsssscscssscsccscss" />
    </g>
  </g>
</svg>
